<svg width="14" height="9" fill="none" xmlns="http://www.w3.org/2000/svg"><path fill-rule="evenodd" clip-rule="evenodd" d="M2.037 2.041L6.79 6.884l.078-.08.29.295 4.751-4.843-.516-.525-4.314 4.397-4.525-4.612-.516.525z" fill="#3F494B"/><path d="M6.789 6.884l-.788.774a1.104 1.104 0 001.576 0l-.788-.774zM2.037 2.041l-.788-.773a1.104 1.104 0 000 1.547l.788-.774zm4.83 4.763l.789-.773a1.104 1.104 0 00-1.577 0l.788.773zm.29.295l-.789.773a1.104 1.104 0 001.576 0L7.156 7.1zm4.751-4.843l.788.774a1.104 1.104 0 000-1.547l-.788.773zm-.516-.525l.789-.774a1.105 1.105 0 00-1.577 0l.788.774zM7.078 6.128L6.29 6.9a1.104 1.104 0 001.576 0l-.788-.773zM2.553 1.516L3.34.743a1.104 1.104 0 00-1.576 0l.788.773zm5.024 4.595L2.825 1.268 1.25 2.815 6 7.658 7.577 6.11zM6.08 6.03l-.078.08 1.576 1.547.079-.08L6.079 6.03zm1.865.294l-.288-.294L6.08 7.577l.289.294 1.576-1.547zm3.176-4.842L6.368 6.325l1.576 1.547 4.752-4.842-1.576-1.547zm-.516 1.021l.516.526 1.576-1.547-.515-.526-1.577 1.547zM7.866 6.901l4.315-4.397L10.604.957 6.29 5.354l1.576 1.547zM1.765 2.289L6.29 6.901l1.576-1.547L3.341.743 1.765 2.289zm1.06.526l.516-.526L1.765.743l-.516.525 1.576 1.547z" fill="#3F494B"/></svg>