<svg width="72" height="55" fill="none" xmlns="http://www.w3.org/2000/svg"><path fill-rule="evenodd" clip-rule="evenodd" d="M18 55c6.075 0 11-4.925 11-11s-4.925-11-11-11S7 37.925 7 44s4.925 11 11 11zm36.632 0c6.075 0 11-4.925 11-11s-4.925-11-11-11-11 4.925-11 11 4.925 11 11 11z" fill="#AADCE7"/><path d="M59.19 41.37l-.03-.04-.034-.037A6.235 6.235 0 0054.5 39.25a6.231 6.231 0 00-4.014 1.456l-.057.047-.049.056c-.393.443-.68.935-.918 1.342l-.007.011c-.253.434-.46.784-.724 1.098-.517.613-1.386 1.24-3.731 1.24H27c-2.244 0-3.198-.499-3.715-.987-.36-.34-.595-.748-.881-1.285a53.284 53.284 0 01-.053-.1c-.258-.486-.587-1.108-1.111-1.626l-.058-.057-.067-.047A6.231 6.231 0 0017.5 39.25a6.235 6.235 0 00-3.15.848l-.059.035-.054.042c-.789.62-1.178 1.463-1.466 2.085l-.047.103c-.319.687-.56 1.15-1.013 1.496-.43.328-1.189.641-2.711.641a8 8 0 01-8-8V7c0-3.333 2.667-6 6-6h40.5A4.5 4.5 0 0152 5.5a6.5 6.5 0 006.5 6.5H61l10 13.333V37.5a7 7 0 01-7 7c-1.328 0-2.133-.239-2.666-.537-.528-.296-.882-.702-1.235-1.22a18.83 18.83 0 01-.422-.653 12.349 12.349 0 00-.488-.72z" stroke="#3F494B" stroke-width="2"/><path d="M28.5 11l12.25 12.25L28.5 35.5v-8.75H11v-7h17.5V11z" fill="#fff"/></svg>