<svg width="110" height="110" fill="none" xmlns="http://www.w3.org/2000/svg"><path d="M75.378 50.694c-1.356 1.373-3.59 1.333-4.954-.031l-2.492-2.492a7.05 7.05 0 010-9.97l17.446-17.444a7.05 7.05 0 00-9.97-9.97L38.027 48.172 34.75 33.976a10.354 10.354 0 00-16.285-5.968 2.78 2.78 0 00-1.125 2.227l.04 41.044-8.399 8.4a3.076 3.076 0 000 4.349l18.071 18.071c.577.577 1.36.901 2.175.901H58.57c2.804 0 5.493-1.116 7.475-3.098L87.87 78.078a7.05 7.05 0 000-9.97l-4.985-4.984 2.395-2.394c2.7-2.7 2.834-7.248.175-9.99a7.05 7.05 0 00-10.077-.046z" fill="#FFF8E1"/><path d="M77.901 48.17a7.05 7.05 0 00-9.969-9.968l-9.97 9.969a7.05 7.05 0 009.97 9.969l9.969-9.97z" fill="#FFF8E1"/><path d="M37.434 23.402a10.35 10.35 0 00-9.049 1.657 2.78 2.78 0 00-1.125 2.228l.04 41.044-8.4 8.398a3.076 3.076 0 000 4.35l11.548 11.547 19.99-19.99c6.882-6.882 6.882-18.04 0-24.922l-2.492-2.492-3.276-14.195a10.355 10.355 0 00-7.236-7.625z" fill="#fff"/><path d="M87.87 68.11a7.05 7.05 0 00-9.97 0 7.05 7.05 0 01-9.969-9.97l-42.42 42.419 1.54 1.54c.577.577 1.36.901 2.175.901h29.342c2.804 0 5.493-1.115 7.476-3.098l21.825-21.824a7.05 7.05 0 000-9.969z" fill="#FFF8E1"/><path d="M96.018 75.034a7.05 7.05 0 00-9.969-9.97l-4.985 4.985a7.05 7.05 0 009.97 9.97l4.984-4.986zm-10-12.001a7.05 7.05 0 00-9.969-9.968l-4.985 4.984a7.05 7.05 0 009.97 9.97l4.984-4.986z" fill="#FFF8E1"/><path d="M70.272 37.644l17.319-17.317-17.319 17.317zm0 0a6.945 6.945 0 00-.807.698c-.037.039-.08.087-.122.14-.02.025-.051.067-.083.12l-.002.003a1.004 1.004 0 00.841 1.532c.257.003.45-.097.471-.108l.002-.001c.1-.05.182-.11.215-.135.165-.124.423-.36.772-.708 0 0 0 0 0 0l.025-.024c.21-.154.463-.325.754-.495 1.56-.917 3.853-1.652 6.135-.316l.041.027c.916.597 1.644 1.219 2.04 1.993 1.321 2.586.434 5.264-.834 7.316a14.12 14.12 0 01-1.517 2.019 8.155 8.155 0 00-.617.563v.001a2.1 2.1 0 00-.267.314c-.016.025-.044.07-.072.13v.001c-.017.038-.087.19-.092.399a1.003 1.003 0 00.646.96c.318.12.59.04.64.024h.003a1.08 1.08 0 00.266-.123l.002-.001a1.41 1.41 0 00.092-.064c.144-.11.367-.319.615-.576.05-.052.102-.107.155-.165a6.051 6.051 0 018.083.545c2.261 2.33 2.168 6.254-.164 8.586l-1.966 1.966a8.31 8.31 0 00-.456.457l1.442 1.386.398-.398a6.184 6.184 0 018.47.116l.522.504c.256.248.436.446.558.648 1.031 1.71.393 4.03-1.233 6.587-1.574 2.473-3.812 4.749-5.145 6.082 0 0 0 0 0 0L68.257 99.471l.707.707-.707-.707a9.576 9.576 0 01-6.768 2.805H32.147c-.55 0-1.078-.218-1.468-.608l-18.071-18.07v-.001a2.076 2.076 0 010-2.935l5.172-5.173a12 12 0 003.515-8.497l-.035-36.481s0 0 0 0c0-.556.266-1.084.724-1.426h0a9.35 9.35 0 018.174-1.497h0a9.356 9.356 0 016.027 5.32c.32.752.235 1.678-.182 2.595-2.907 6.39 5.113 12.117 10.214 7.295l32.8-31.007.01-.01.01-.01a6.05 6.05 0 018.554 8.555L70.272 37.645zM30.434 26.627a10.35 10.35 0 00-9.049 1.657L45.53 42.071c-4.303 4.068-11.07-.764-8.617-6.154.49-1.08.657-2.31.191-3.401a10.356 10.356 0 00-6.67-5.89zm39.151 11.667a.066.066 0 01.002-.001l-.002.001zM77.618 50.3l.68.672-.68-.672z" stroke="#3F494B" stroke-width="2"/><path fill-rule="evenodd" clip-rule="evenodd" d="M40.188 18.964a3.018 3.018 0 01-3.018-3.018V3.018a3.018 3.018 0 016.035 0v12.928a3.018 3.018 0 01-3.017 3.018zm-15.062-.884l-3.232-3.232a3.017 3.017 0 114.267-4.267l3.232 3.232a3.017 3.017 0 11-4.267 4.267zm25.857-4.267a3.017 3.017 0 104.268 4.267l3.232-3.232a3.018 3.018 0 00-4.267-4.267l-3.233 3.232z" fill="#AADCE7"/></svg>