<svg width="38" height="36" fill="none" xmlns="http://www.w3.org/2000/svg"><path fill-rule="evenodd" clip-rule="evenodd" d="M13.893.307c.783 1.853 2.627 2.484 4.772 2.484 2.148 0 3.994-.629 4.776-2.484l.26.013c.564.029 1.501.076 1.897.144-.896 2.545-4.071 4.382-6.933 4.382-2.86 0-6.064-1.837-6.96-4.382.374-.064 1.24-.108 1.819-.138l.369-.02zm4.686 7.091c4.522 0 8.404-2.625 10.322-6.415 5.377 2.325 8.432 8.221 8.432 14.452v1.137h-7.068v18.677H6.991V16.572H0v-1.137C0 9.267 3.011 3.418 8.29 1.04c1.932 3.76 5.787 6.357 10.289 6.357z" fill="#BFE7D4"/></svg>