<svg width="24" height="19" fill="none" xmlns="http://www.w3.org/2000/svg"><path d="M23.997.467a.514.514 0 00-.005-.054c-.003-.016-.008-.031-.012-.047a.48.48 0 00-.034-.092c-.007-.014-.013-.028-.022-.041a.493.493 0 00-.031-.045c-.007-.008-.012-.018-.02-.026l-.007-.007a.472.472 0 00-.04-.037.164.164 0 00-.032-.027.464.464 0 00-.042-.026c-.013-.008-.025-.016-.039-.022-.014-.007-.03-.01-.044-.016l-.044-.014-.043-.007a.452.452 0 00-.052-.005L23.52 0H.48L.47.001a.468.468 0 00-.053.006C.403.009.389.01.376.013a.466.466 0 00-.048.015C.315.033.3.037.288.043.272.049.26.058.245.066L.206.09.173.12a.5.5 0 00-.04.036L.127.162l-.02.026a.501.501 0 00-.031.045.265.265 0 00-.022.04L.034.32A.35.35 0 00.02.366C.015.383.01.396.008.413a.522.522 0 00-.005.054L0 .5v17c0 .398.152.779.422 1.06s.636.44 1.018.44h21.12c.382 0 .748-.159 1.018-.44S24 17.898 24 17.5V.5l-.003-.033zM22.286 1L12 10.822 1.714 1h20.572zm.274 17H1.44a.471.471 0 01-.34-.147.511.511 0 01-.14-.353V1.637l10.716 10.232a.47.47 0 00.648 0L23.04 1.637V17.5a.51.51 0 01-.14.353.471.471 0 01-.34.147z" fill="#F2AD97"/></svg>