<svg width="110" height="110" fill="none" xmlns="http://www.w3.org/2000/svg"><path d="M101.861 48.758l-8.152-24.1A18.87 18.87 0 0080.384 12.32L66.781 9l-5.39 2.695H50.61L45.218 9l-13.606 3.32a18.864 18.864 0 00-13.321 12.336l-8.153 24.102a2.694 2.694 0 001.704 3.407l11.813 3.264 2.696-3.124 2.695 4.636v41.364A2.695 2.695 0 0031.742 101h48.516a2.695 2.695 0 002.695-2.695V56.94l2.695-10.027 2.696 8.515 11.813-3.264a2.694 2.694 0 001.704-3.407z" fill="#CFF6FF"/><path d="M82.953 98.305V56.94l2.695-10.027 2.696 8.515 11.813-3.264a2.693 2.693 0 001.704-3.407l-8.152-24.1A18.87 18.87 0 0080.384 12.32L66.781 9l-5.39 2.695H56V101h24.258a2.695 2.695 0 002.695-2.695zM29.047 33.438a2.695 2.695 0 10-5.39 0v21.991l5.39 1.512V33.438z" fill="#AADCE7"/><path d="M85.648 30.742a2.695 2.695 0 00-2.695 2.695v23.505l5.39-1.513V33.437a2.695 2.695 0 00-2.695-2.695z" fill="#CFF6FF"/><path d="M56 9H45.219v2.695c0 3.37 5.211 10.782 10.781 10.782s10.781-7.412 10.781-10.782V9H56z" fill="#AADCE7"/><path d="M74.517 53.67a2.694 2.694 0 00-2.345-1.365H58.695V38.828c0-1.21-.808-2.274-1.976-2.598-.242-.067-.475.038-.719.04-.92.007-1.82.35-2.31 1.171L37.516 64.394a2.696 2.696 0 002.311 4.083h13.477v13.476a2.696 2.696 0 005.006 1.387l16.172-26.953c.5-.834.513-1.871.034-2.716z" fill="#BFE7D4"/><path d="M74.483 56.387a2.696 2.696 0 00-2.311-4.082H58.695V38.828c0-1.21-.808-2.274-1.976-2.598-.242-.067-.475.038-.719.04v48.378c.93 0 1.816-.481 2.311-1.308l16.172-26.953z" fill="#6DAD83"/><mask id="a" fill="#fff"><path fill-rule="evenodd" clip-rule="evenodd" d="M43.516 10h20.779a20 20 0 014.327.474l12.352 2.737c.417.094.829.2 1.235.318 6.09 1.764 10.922 6.068 12.96 11.619l8.683 23.314c.501 1.365-.312 2.84-1.815 3.296l-4.195 1.052-6.389 2.105a6.725 6.725 0 00-4.742 6.426v37.052c0 1.44-1.286 2.607-2.871 2.607H26.16c-1.585 0-2.871-1.167-2.871-2.607v-36.09a7.625 7.625 0 00-5.742-7.388l-8.584-3.157c-1.503-.456-2.316-1.931-1.815-3.296l7.685-23.317c2.172-5.92 7.524-10.42 14.19-11.934L43.515 10z"/></mask><path d="M80.974 13.21l.443-1.95-.01-.002-.433 1.953zm1.235.32l-.557 1.92.557-1.92zm12.96 11.618l-1.878.689.003.009 1.874-.698zm8.683 23.314l1.878-.69-.004-.008-1.874.698zm-1.815 3.296l.487 1.94.047-.012.046-.014-.58-1.914zm-4.195 1.052l-.486-1.94-.07.018-.07.023.627 1.9zm-88.88-1.052l.691-1.877-.055-.02-.056-.017-.58 1.914zm-1.814-3.296l1.877.689.012-.032.01-.031-1.9-.626zm7.685-23.317l-1.878-.689-.011.032-.01.031 1.899.627zm14.19-11.934l-.433-1.952-.01.002.442 1.95zM43.515 10l-.433-1.953.433 1.953zM55 8H43.516v4H55V8zm9.295 0H55v4h9.295V8zm17.112 3.258L69.055 8.521l-.866 3.905 12.353 2.737.865-3.905zm1.358.35a23.835 23.835 0 00-1.348-.348l-.886 3.901c.38.086.753.183 1.121.29l1.113-3.843zm14.28 12.85c-2.276-6.204-7.64-10.926-14.28-12.85l-1.113 3.842c5.539 1.604 9.841 5.49 11.639 10.387l3.755-1.378zm8.681 23.306L97.043 24.45l-3.749 1.396 8.684 23.314 3.748-1.396zm-3.109 5.908c2.449-.742 4.063-3.309 3.113-5.9l-3.756 1.379a.38.38 0 01-.03.335c-.068.124-.217.276-.486.358l1.159 3.828zm-4.288 1.078l4.195-1.052-.973-3.88-4.195 1.052.973 3.88zm-6.25 2.065l6.39-2.105-1.252-3.8-6.39 2.106 1.252 3.799zM88.71 98.393V61.34h-4v37.052h4zM83.84 103c2.504 0 4.87-1.886 4.87-4.607h-4c0 .101-.04.232-.185.363a1.017 1.017 0 01-.685.244v4zM55 103h28.84v-4H55v4zm-28.84 0H55v-4H26.16v4zm-4.871-4.607c0 2.721 2.367 4.607 4.871 4.607v-4c-.3 0-.538-.11-.685-.244-.145-.131-.186-.262-.186-.363h-4zm0-36.09v36.09h4v-36.09h-4zM8.272 53.636l8.584 3.157 1.381-3.754-8.584-3.157-1.38 3.754zM5.27 47.773c-.95 2.59.664 5.157 3.113 5.899l1.16-3.828c-.27-.082-.42-.234-.487-.358a.383.383 0 01-.03-.335L5.27 47.773zm7.663-23.254L5.248 47.836l3.8 1.252 7.684-23.317-3.799-1.252zM28.58 11.261c-7.26 1.648-13.195 6.578-15.624 13.195l3.755 1.379c1.917-5.223 6.685-9.295 12.755-10.673l-.886-3.9zm14.504-3.214L28.59 11.26l.865 3.905 14.493-3.211-.865-3.906zM25.289 62.304c0-4.4-2.984-8.24-7.248-9.327l-.988 3.876a5.625 5.625 0 014.236 5.45h4zm65.575-9.3a8.725 8.725 0 00-6.153 8.337h4a4.725 4.725 0 013.332-4.515l-1.18-3.822zM43.948 11.953a1.998 1.998 0 01-.432.047V8a2 2 0 00-.433.047l.865 3.906zM64.295 12c1.31 0 2.615.143 3.894.426l.866-3.905A22 22 0 0064.294 8v4z" fill="#3F494B" mask="url(#a)"/></svg>