<svg width="17" height="19" fill="none" xmlns="http://www.w3.org/2000/svg"><path d="M1.764 8.69a.691.691 0 01-.223.136.75.75 0 01-.752-.136.603.603 0 01-.202-.444c0-.166.073-.326.202-.444L6.82 2.319C8.18 1.369 9.548.912 10.91.974c1.716.08 3.052.668 4.186 1.634C16.252 3.592 17 4.998 17 6.7c0 1.307-.422 2.457-1.313 3.478L7.184 18.06c-.86.635-1.816.942-2.84.905-1.3-.049-2.267-.427-2.986-1.067C.516 17.151 0 16.233 0 14.997c0-.983.377-1.89 1.155-2.742L8.639 5.38c.6-.576 1.187-.918 1.787-1 .4-.058.81-.025 1.194.093.383.118.729.32 1.006.586.532.506.76 1.138.68 1.857-.055.49-.278.942-.688 1.375l-6.88 6.343a.692.692 0 01-.222.138.749.749 0 01-.752-.132.603.603 0 01-.205-.443.602.602 0 01.199-.446l6.847-6.31c.2-.212.305-.425.33-.652.04-.36-.056-.625-.305-.862a1.138 1.138 0 00-.457-.266 1.236 1.236 0 00-.543-.04c-.243.033-.583.232-1.002.634L2.175 13.1c-.537.59-.797 1.215-.797 1.898 0 .858.345 1.473.942 2.003.475.423 1.12.675 2.08.711.68.024 1.31-.178 1.858-.578l8.397-7.784c.645-.745.967-1.62.967-2.65a4.079 4.079 0 00-1.468-3.174c-.91-.776-1.95-1.233-3.313-1.296-1.008-.047-2.065.306-3.117 1.031l-5.96 5.43V8.69z" fill="#3F494B"/></svg>