<svg width="13" height="9" fill="none" xmlns="http://www.w3.org/2000/svg"><path fill-rule="evenodd" clip-rule="evenodd" d="M11.871 6.474L7.12 1.632l-.078.08-.289-.295L2 6.26l.516.525L6.83 2.388 11.355 7l.516-.526z" fill="#6DAD83"/><path d="M7.12 1.632l.787-.774a1.104 1.104 0 00-1.576 0l.788.774zm4.751 4.842l.788.774a1.104 1.104 0 000-1.547l-.788.773zm-4.83-4.763l-.788.774a1.104 1.104 0 001.576 0l-.788-.774zm-.289-.294L7.54.644a1.104 1.104 0 00-1.576 0l.788.773zM2 6.26l-.788-.774a1.104 1.104 0 000 1.547L2 6.26zm.516.525l-.788.774a1.104 1.104 0 001.576 0l-.788-.774zM6.83 2.388l.789-.773a1.104 1.104 0 00-1.577 0l.788.773zM11.355 7l-.788.773a1.104 1.104 0 001.577 0L11.355 7zM6.331 2.405l4.752 4.843L12.659 5.7 7.907.858 6.331 2.405zm1.498.08l.078-.08L6.331.858l-.078.08 1.576 1.547zM5.964 2.19l.289.295L7.829.938 7.54.644 5.964 2.19zM2.788 7.033L7.54 2.19 5.964.644 1.212 5.486l1.576 1.547zm.516-1.021l-.516-.526-1.576 1.547.516.526 1.576-1.547zm2.738-4.397L1.728 6.012l1.576 1.547 4.315-4.397-1.577-1.547zm6.102 4.611L7.619 1.615 6.042 3.162l4.525 4.611 1.577-1.547zm-1.061-.525l-.516.525 1.577 1.547.515-.525L11.083 5.7z" fill="#6DAD83"/></svg>