<svg width="24" height="24" fill="none" xmlns="http://www.w3.org/2000/svg"><path fill-rule="evenodd" clip-rule="evenodd" d="M22.596 4.006c.344.913.527 1.88.54 2.856.072 1.228.072 1.63.075 4.738v.043c0 3.149-.017 3.542-.072 4.782a8.49 8.49 0 01-.54 2.819 5.95 5.95 0 01-3.394 3.393 8.494 8.494 0 01-2.818.54c-1.23.073-1.634.073-4.782.073-3.147 0-3.54-.017-4.781-.073a8.489 8.489 0 01-2.817-.58 5.943 5.943 0 01-3.395-3.392 8.5 8.5 0 01-.54-2.819C0 15.154 0 14.752 0 11.604c0-3.147.017-3.54.072-4.782a8.449 8.449 0 01.54-2.816A5.938 5.938 0 014.006.612 8.515 8.515 0 016.822.071C8.053 0 8.457 0 11.604 0c3.148 0 3.54.015 4.78.07.964.02 1.916.204 2.818.542a5.942 5.942 0 013.394 3.394zM5.638 11.598A5.957 5.957 0 0015.81 15.81a5.959 5.959 0 10-10.172-4.213zM17.26 6.703a1.388 1.388 0 001.815-1.816 1.39 1.39 0 10-1.815 1.816zm-1.795 4.895a3.87 3.87 0 11-7.742 0 3.87 3.87 0 017.742 0z" fill="#3F494B"/></svg>