<svg width="19" height="19" fill="none" xmlns="http://www.w3.org/2000/svg"><path fill-rule="evenodd" clip-rule="evenodd" d="M17.531 3.108c.267.709.409 1.459.419 2.216.056.953.056 1.264.058 3.675v.034c0 2.443-.013 2.748-.056 3.71a6.586 6.586 0 01-.419 2.187 4.613 4.613 0 01-2.633 2.633 6.59 6.59 0 01-2.186.419c-.955.056-1.268.056-3.71.056s-2.747-.013-3.71-.056a6.583 6.583 0 01-2.185-.45A4.61 4.61 0 01.475 14.9a6.595 6.595 0 01-.419-2.187C0 11.757 0 11.445 0 9.003s.013-2.747.056-3.71a6.554 6.554 0 01.419-2.185A4.607 4.607 0 013.108.475a6.606 6.606 0 012.185-.42C6.248 0 6.561 0 9.003 0s2.747.012 3.709.055a6.606 6.606 0 012.186.42 4.61 4.61 0 012.633 2.633zM4.374 8.998a4.622 4.622 0 104.623-4.623 4.622 4.622 0 00-4.623 4.623zM13.391 5.2a1.077 1.077 0 10.824-1.99 1.077 1.077 0 00-.824 1.99zm-1.39 3.798a3.003 3.003 0 11-6.007 0 3.003 3.003 0 016.006 0z" fill="#fff"/></svg>