<svg width="110" height="110" fill="none" xmlns="http://www.w3.org/2000/svg"><mask id="a" fill="#fff"><path fill-rule="evenodd" clip-rule="evenodd" d="M55.501 22.4h27.068C90.025 22.4 96 28.588 96 36.133v11.561c0 .47-.05.927-.147 1.368-.61 2.825-3.073 4.938-6.05 4.938h-.123c-2.715-.04-5.01-1.836-5.824-4.317a6.338 6.338 0 01-.319-1.989v-9.458c0-1.742-1.326-3.224-3.046-3.224H30.645c-1.72 0-3.184 1.482-3.184 3.224v9.458c0 3.483-2.755 6.306-6.196 6.306h-.017C17.807 54 15 51.177 15 47.694v-11.56C15 28.588 21.113 22.4 28.569 22.4H55.5z"/></mask><path d="M55.501 22.4v-2h-2v2h2zm40.5 13.733h2-2zm-.148 12.929l-1.953-.427-.001.004 1.954.423zm-6.173 4.937l.034-2h-.005l-.029 2zm-5.824-4.316l1.9-.623-.001-.003-1.9.626zM55.5 22.401v2h2v-2h-2zm27.068-2H55.501v4h27.068v-4zM98 36.132c0-8.6-6.821-15.733-15.43-15.733v4C88.871 24.4 94 29.643 94 36.134h4zm0 11.561v-11.56h-4v11.56h4zm-.193 1.795a8.38 8.38 0 00.194-1.795h-4a4.4 4.4 0 01-.101.94l3.907.855zm-3.908-.85C93.478 50.587 91.795 52 89.802 52v4c3.962 0 7.206-2.813 8.006-6.516l-3.91-.845zM89.802 52h-.017v4h.017v-4zm-.017 0h-.071l-.067 3.999.138.001v-4zm-7.83-1.693c1.07 3.256 4.09 5.64 7.697 5.692l.057-4c-1.825-.026-3.394-1.235-3.953-2.94l-3.8 1.248zm3.8-1.25a4.336 4.336 0 01-.218-1.363h-4c0 .91.147 1.791.42 2.616l3.798-1.253zm-.218-1.363v-9.458h-4v9.458h4zm0-9.458c0-2.705-2.086-5.224-5.046-5.224v4c.48 0 1.046.446 1.046 1.224h4zm-5.046-5.224H30.645v4h49.846v-4zm-49.846 0c-2.848 0-5.184 2.401-5.184 5.224h4c0-.66.592-1.224 1.184-1.224v-4zm-5.184 5.224v9.458h4v-9.458h-4zm0 9.458c0 2.415-1.896 4.306-4.196 4.306v4c4.583 0 8.196-3.756 8.196-8.306h-4zM21.265 52h-.017v4h.017v-4zm-.017 0C18.927 52 17 50.088 17 47.694h-4C13 52.266 16.687 56 21.248 56v-4zM17 47.694v-11.56h-4v11.56h4zm0-11.56C17 29.67 22.24 24.4 28.569 24.4v-4C19.986 20.4 13 27.506 13 36.134h4zM28.569 24.4H55.5v-4H28.569v4zm24.932-2h4-4z" fill="#3F494B" mask="url(#a)"/><path d="M90.685 46.82a5.34 5.34 0 01-10.68 0v-8.01c0-1.474-1.136-2.73-2.611-2.73h-21.42V95c22.251 0 40.17-14.426 40.17-32.159 0-5.648-1.899-11.192-5.459-16.097v.077z" fill="#6DAD83"/><path d="M85.374 52.16h-.014c-2.95 0-5.355-2.39-5.355-5.34v-8.01c0-1.474-1.137-2.73-2.611-2.73H34.673c-1.475 0-2.73 1.256-2.73 2.73v8.01c0 2.95-2.36 5.34-5.31 5.34h-.014c-2.95 0-5.355-2.39-5.355-5.34v-9.79c0-6.39 5.239-11.63 11.629-11.63h46.28c6.39 0 11.512 5.24 11.512 11.63v9.79c0 2.95-2.361 5.34-5.31 5.34z" fill="#FFF8E1"/><path d="M79.174 25.4h-23.2v10.68h21.42c1.475 0 2.611 1.256 2.611 2.73v8.01a5.34 5.34 0 0010.68 0v-9.79c0-6.39-5.12-11.63-11.511-11.63z" fill="#F8ECC5"/><path d="M41.024 23.68a5.34 5.34 0 100-10.68 5.34 5.34 0 000 10.68z" fill="#FFF8E1"/><path d="M90.685 46.744v.077a5.34 5.34 0 11-10.68 0v-8.01c0-1.475-1.137-2.73-2.611-2.73H34.673c-1.475 0-2.73 1.255-2.73 2.73v8.01a5.34 5.34 0 11-10.68 0v-.078c-3.56 4.91-5.429 10.455-5.429 16.098C15.834 80.574 33.869 95 56.019 95c22.15 0 40.147-14.426 40.147-32.159 0-5.648-1.92-11.192-5.48-16.097z" fill="#BFE7D4"/><path d="M64.043 23.68a5.34 5.34 0 100-10.68 5.34 5.34 0 000 10.68z" fill="#F8ECC5"/><path d="M64.043 23.68a5.34 5.34 0 100-10.68 5.34 5.34 0 000 10.68z" fill="#F8ECC5"/><path d="M88.742 53.194c2.973 0 5.57-1.772 6.59-4.318C98.386 53.482 100 58.52 100 63.614c0 9.098-4.89 17.422-12.933 23.506C79.022 93.203 67.869 97 55.52 97c-12.348 0-23.512-3.797-31.567-9.88C15.9 81.034 11 72.71 11 63.613c0-5.094 1.571-10.13 4.61-14.735 1.02 2.545 3.617 4.315 6.59 4.315 3.838 0 7.05-2.95 7.05-6.71v-8.565c0-.971.918-1.919 2.09-1.919h48.394c1.115 0 1.958.891 1.958 1.919v8.565c0 3.76 3.212 6.71 7.05 6.71zM48 18.5a5.5 5.5 0 11-11 0 5.5 5.5 0 0111 0zm20 0a5.5 5.5 0 11-11 0 5.5 5.5 0 0111 0z" stroke="#3F494B" stroke-width="2"/></svg>