<svg width="75" height="62" fill="none" xmlns="http://www.w3.org/2000/svg"><path d="M29.203 61.5c0 1.144 12.095-13.691 13-14.5-2.779-1.282-9-3.074-8-4.5 6.487-9.25 27.5-31 27.5-31L23.203 39l6 22.5z" fill="#BFE7D4"/><path d="M72.188 11.903c1.95-7.83-1.854-10.448-9.407-7.608L15.533 22.06c-10.124 3.806-11.284 9.263-1.238 13.272v0a16.799 16.799 0 0015.855-1.85C42.285 24.967 65.006 9.045 64.71 9.365L37.204 38.696v0c-1.873 2.197-1.164 5.57 1.435 6.827l10.438 5.048c4.91 2.374 10.29 1.071 12.33-3.986 3.725-9.233 8.173-24.21 10.78-34.682z" stroke="#3F494B" stroke-width="2"/></svg>