<svg width="41" height="35" fill="none" xmlns="http://www.w3.org/2000/svg"><path d="M40.538 11.54c-.02-.126-.06-.25-.109-.368-.01-.026-.01-.052-.022-.078a.03.03 0 01-.005-.006c0-.003-.001-.004-.003-.006l-4.392-9.279c-.01-.021-.03-.04-.041-.062-.016-.026-.02-.058-.038-.084-.033-.056-.079-.1-.118-.15-.04-.052-.077-.108-.121-.154a1.693 1.693 0 00-.217-.183c-.048-.037-.093-.079-.146-.11a1.685 1.685 0 00-.282-.127c-.05-.018-.096-.047-.147-.06a1.742 1.742 0 00-.472-.067H8.535c-.153 0-.302.02-.447.059-.05.013-.097.04-.147.056-.089.033-.18.062-.263.11-.053.03-.097.071-.147.105-.071.05-.145.098-.208.159-.045.044-.08.096-.12.145-.047.055-.102.104-.14.167l-5.966 9.279c-.023.036-.033.077-.053.115-.017.03-.046.057-.06.09-.016.035-.017.072-.032.105a1.972 1.972 0 00-.113.465 1.787 1.787 0 00-.003.261c.006.071.01.142.022.211.016.086.043.166.07.248.025.07.047.14.08.206.011.023.016.049.027.072.031.058.077.103.116.156.03.045.049.092.084.133l18.031 21.186c.311.365.777.625 1.242.612.006 0 .012.003.015.003l.077.001h.004c.156 0 .309-.029.456-.068l.127-.044c.108-.038.214-.088.314-.148.034-.02.07-.04.102-.06a1.69 1.69 0 00.326-.29l18.217-21.187c.023-.027.036-.06.057-.09.029-.036.065-.066.09-.108.026-.04.04-.087.061-.13.03-.057.06-.113.083-.174.034-.088.057-.178.078-.268.013-.06.027-.119.033-.18a1.54 1.54 0 000-.296c-.004-.059-.002-.114-.01-.167z" fill="#FFF8E1"/></svg>