<svg width="146" height="122" fill="none" xmlns="http://www.w3.org/2000/svg"><path d="M113.498 1.648l.07.067.08.052 30.698 19.95c.63.655.828 1.629.493 2.487v.001l-.677 1.742h0a2.328 2.328 0 01-.522.803l-.045.046-.04.051-19.254 25.223c-.86.817-2.386.804-3.224-.04l-.134-.136-.174-.076-6.133-2.692-1.402-.615v70.147c0 1.302-1.043 2.342-2.314 2.342H34.403c-1.27 0-2.314-1.04-2.314-2.342V48.511l-1.402.615-6.133 2.692-.174.076-.134.136a2.299 2.299 0 01-3.223.04L1.765 26.848l-.04-.051-.045-.046a2.36 2.36 0 01-.056-3.259L32.353 1.794l.072-.05.062-.063A2.3 2.3 0 0134.12 1h16.055c.711 0 1.385.331 1.826.904h0c.439.57.591 1.317.411 2.022h0c-.474 1.864-.719 3.722-.719 5.52 0 12.153 9.807 22.055 21.88 22.055C85.651 31.5 95.46 21.6 95.46 9.446a22.28 22.28 0 00-.723-5.52 2.36 2.36 0 01.416-2.022l.001-.002A2.298 2.298 0 0196.977 1H111.9c.594 0 1.167.23 1.598.648z" stroke="#3F494B" stroke-width="2"/><path stroke="#F2AD97" stroke-width="2" d="M45 119v-17m0-99v80"/><path stroke="#6DAD83" stroke-width="2" d="M81 55h30m-45 0H34"/><path d="M76.97 62.76h-7L68.59 66h-2.68l6.3-14h2.56l6.32 14h-2.72l-1.4-3.24zm-.86-2.04l-2.64-6.12-2.62 6.12h5.26z" fill="#6DAD83"/><path d="M49.193 91.72c.773.253 1.386.68 1.84 1.28.453.587.68 1.32.68 2.2 0 1.213-.467 2.153-1.4 2.82-.934.653-2.294.98-4.08.98h-6.96V85h6.56c1.653 0 2.926.327 3.82.98.893.64 1.34 1.527 1.34 2.66 0 .693-.16 1.307-.48 1.84-.32.533-.76.947-1.32 1.24zm-7.32-4.68v3.86h3.68c.906 0 1.6-.16 2.08-.48.493-.333.74-.813.74-1.44 0-.64-.247-1.12-.74-1.44-.48-.333-1.174-.5-2.08-.5h-3.68zm4.2 9.92c2.013 0 3.02-.673 3.02-2.02s-1.007-2.02-3.02-2.02h-4.2v4.04h4.2z" fill="#D9927B"/></svg>