<svg width="18" height="18" fill="none" xmlns="http://www.w3.org/2000/svg"><circle cx="9" cy="9" r="6" fill="#fff"/><path fill-rule="evenodd" clip-rule="evenodd" d="M17.8 8.868a8.7 8.7 0 11-17.4 0 8.7 8.7 0 0117.4 0zM9.412 6.591c-.846.352-2.537 1.08-5.073 2.185-.412.164-.628.324-.648.481-.033.265.299.37.75.511l.19.061c.445.144 1.042.313 1.353.32.282.006.596-.11.944-.348 2.369-1.6 3.592-2.409 3.669-2.426.054-.012.13-.028.18.017.051.045.046.13.04.154-.032.14-1.333 1.35-2.007 1.976-.21.195-.36.334-.39.366-.068.07-.137.138-.204.202-.413.397-.722.696.017 1.183.356.235.64.428.923.62.31.212.619.422 1.019.685.101.066.198.135.293.203.36.257.685.487 1.085.451.232-.021.473-.24.595-.891.287-1.542.854-4.88.986-6.256a1.53 1.53 0 00-.015-.342.367.367 0 00-.125-.236.568.568 0 00-.337-.101c-.327.006-.828.18-3.245 1.185z" fill="#2DA5E0"/></svg>