<svg width="111" height="110" fill="none" xmlns="http://www.w3.org/2000/svg"><g clip-path="url(#clip0_318:4186)"><path d="M82.533 39.234l2.106-5.05a3.135 3.135 0 00-1.262-3.884l-4.673-2.848.443-5.453a3.134 3.134 0 00-2.4-3.303l-5.323-1.265-1.265-5.324a3.135 3.135 0 00-3.303-2.4l-5.455.443-2.848-4.673a3.135 3.135 0 00-3.883-1.262L49.62 6.32l-4.153-3.564A3.128 3.128 0 0043.426 2v86.855c.727 0 1.454-.252 2.042-.756l4.151-3.564 5.05 2.107a3.134 3.134 0 003.884-1.262l2.848-4.672 5.455.443a3.136 3.136 0 003.303-2.4l1.265-5.325 5.323-1.265a3.135 3.135 0 002.4-3.303l-.443-5.454 4.673-2.847a3.135 3.135 0 001.262-3.884l-2.106-5.05 3.564-4.154a3.135 3.135 0 000-4.083l-3.564-4.152z" fill="#FFF8E1"/><path d="M27.328 45.99c1.764 0 3.066.36 3.906 1.08.852.72 1.278 1.68 1.278 2.88 0 .78-.204 1.5-.612 2.16-.396.648-1.008 1.17-1.836 1.566-.816.384-1.83.576-3.042.576-.888 0-1.77-.108-2.646-.324-.864-.216-1.608-.522-2.232-.918l1.278-2.682a6.154 6.154 0 001.656.774c.612.18 1.224.27 1.836.27.612 0 1.098-.114 1.458-.342.372-.24.558-.57.558-.99 0-.42-.18-.738-.54-.954-.36-.216-.996-.324-1.908-.324h-3.42l.63-7.362h8.028v2.754h-5.076l-.162 1.836h.846zm29.276-4.59V54H39.522V41.4h3.51v9.774h3.294V41.4h3.51v9.774h3.258V41.4h3.51zm12.845 2.826h-3.852V54h-3.51v-9.774h-3.87V41.4H69.45v2.826zm2.216 9.936c-.576 0-1.062-.192-1.458-.576-.396-.384-.594-.87-.594-1.458 0-.6.192-1.086.576-1.458.396-.372.888-.558 1.476-.558.6 0 1.092.186 1.476.558.384.372.576.858.576 1.458 0 .588-.198 1.074-.594 1.458-.384.384-.87.576-1.458.576z" fill="#3F494B"/><path d="M84.611 38.849l-.237.568.401.468 3.564 4.152c.687.8.687 1.98 0 2.78h0l-3.564 4.154-.401.468.237.568 2.106 5.05c.406.973.04 2.097-.86 2.645l-4.672 2.848-.527.32.05.615.443 5.453h0a2.135 2.135 0 01-1.634 2.25l-5.323 1.264-.6.142-.142.6-1.265 5.325a2.136 2.136 0 01-2.25 1.634s0 0 0 0l-5.454-.443-.614-.05-.321.526L60.7 84.86a2.134 2.134 0 01-2.644.86h0l-5.05-2.107-.57-.237-.467.4-4.151 3.564c-.8.687-1.981.687-2.781 0 0 0 0 0 0 0l-4.152-3.563-.467-.401-.569.237-5.05 2.105h0a2.135 2.135 0 01-2.645-.86l-.854.52.854-.52-2.848-4.673-.32-.526-.615.05-5.454.443s0 0 0 0a2.134 2.134 0 01-2.25-1.634l-1.265-5.325-.142-.6-.6-.142-5.323-1.264h0a2.134 2.134 0 01-1.634-2.25h0l.443-5.453.05-.614-.527-.321L6.997 59.7a2.135 2.135 0 01-.86-2.644h0l2.106-5.05.237-.57-.401-.467-3.564-4.152a2.135 2.135 0 010-2.78h0l3.564-4.154.401-.467-.237-.569-2.106-5.05a2.135 2.135 0 01.86-2.645s0 0 0 0l4.672-2.848.527-.32-.05-.615-.443-5.453h0a2.135 2.135 0 011.634-2.25l5.323-1.264.6-.142.142-.6 1.265-5.325a2.136 2.136 0 012.25-1.634s0 0 0 0l5.454.443.614.05.321-.526 2.848-4.673a2.134 2.134 0 012.644-.86h0l5.05 2.107.57.238.467-.402 4.151-3.563a2.134 2.134 0 012.781 0l4.152 3.563.467.401.569-.237 5.05-2.105h0a2.135 2.135 0 012.645.86h0l2.848 4.673.32.526.615-.05 5.454-.443s0 0 0 0a2.134 2.134 0 012.25 1.634l1.265 5.325.142.6.6.142 5.323 1.264h0a2.134 2.134 0 011.634 2.25h0l-.443 5.453-.05.614.526.321 4.673 2.848c.9.548 1.266 1.671.86 2.644l.9.376-.9-.376-2.106 5.05z" stroke="#3F494B" stroke-width="2"/><path d="M91.575 108.082L77.158 93.665 69.3 101.52a3.135 3.135 0 01-5.257-1.456L53.97 59.773a3.134 3.134 0 013.801-3.802l40.292 10.073a3.134 3.134 0 011.457 5.258l-7.857 7.856 14.418 14.418a3.137 3.137 0 010 4.433l-10.073 10.073a3.134 3.134 0 01-4.434 0z" fill="#AADCE7"/><path d="M96.664 79.159l7.856-7.857a3.135 3.135 0 00-1.456-5.257L62.772 55.972a3.135 3.135 0 00-2.977.824l46.25 46.25 5.036-5.037a3.135 3.135 0 000-4.433L96.664 79.16z" fill="#fff"/></g><path d="M96.282 107.374h0L81.865 92.957l-.707-.707-.707.707-7.857 7.857h0a2.134 2.134 0 01-2.079.547h0a2.133 2.133 0 01-1.501-1.539h0L58.94 59.53a2.134 2.134 0 012.589-2.59h0l40.292 10.074c.746.186 1.334.76 1.539 1.5v.001a2.134 2.134 0 01-.547 2.08l.689.688-.689-.689-7.857 7.857-.707.707.707.707 14.417 14.417a2.135 2.135 0 010 3.02L99.3 107.374h0a2.134 2.134 0 01-3.019 0z" stroke="#3F494B" stroke-width="2"/><defs><clipPath id="clip0_318:4186"><path fill="#fff" d="M0 0h107v107H0z"/></clipPath></defs></svg>