<svg width="20" height="20" fill="none" xmlns="http://www.w3.org/2000/svg"><circle cx="10.5" cy="8.5" r="7.5" fill="#fff"/><path d="M17.408 14.972c-.845.748-2.07 1.284-3.674 1.609-1.605.325-3.258.42-4.96.285L5.54 19.294v-3.035c-1.066-.33-1.899-.76-2.499-1.287-.71-.625-1.261-1.524-1.653-2.694a11.226 11.226 0 010-7.173c.392-1.17.946-2.072 1.662-2.703.717-.631 1.743-1.116 3.078-1.453a16.67 16.67 0 014.097-.506c1.396 0 2.762.17 4.097.506 1.335.337 2.36.822 3.077 1.453.717.631 1.27 1.533 1.663 2.703a11.227 11.227 0 010 7.173c-.392 1.17-.943 2.069-1.654 2.694zm-4.868-4.506l1.194.203c-.098-1.472-.665-2.728-1.7-3.77C11 5.855 9.747 5.285 8.277 5.188l.202 1.195a4.567 4.567 0 012.72 1.342 4.589 4.589 0 011.34 2.74zm-3.858-2.85l.22 1.324c.49.245.851.607 1.084 1.085l1.323.22a3.364 3.364 0 00-.937-1.682 3.576 3.576 0 00-1.69-.947zM6.716 8.7V7.524c0-.209-.077-.417-.23-.626a1.508 1.508 0 00-.487-.45c-.171-.092-.3-.101-.386-.028l-.845.865c-.477.478-.548 1.223-.211 2.234.337 1.011.98 1.992 1.929 2.942.95.95 1.93 1.594 2.94 1.931 1.01.338 1.748.267 2.213-.211l.864-.864c.086-.074.083-.2-.01-.377a1.395 1.395 0 00-.45-.488 1.078 1.078 0 00-.624-.22h-1.176l-.68.588c-.539-.147-1.21-.622-2.011-1.425-.803-.803-1.277-1.48-1.424-2.032l.588-.662zm1.176-5.885l.183 1.195a6.805 6.805 0 013.4.966 6.978 6.978 0 012.48 2.482 6.97 6.97 0 01.973 3.393l1.194.203a8.06 8.06 0 00-.652-3.2 8.277 8.277 0 00-1.755-2.63 8.267 8.267 0 00-2.627-1.756 8.04 8.04 0 00-3.196-.653z" fill="#7461F2"/></svg>