<svg width="15" height="16" fill="none" xmlns="http://www.w3.org/2000/svg"><path d="M12.932 12.263c-.658.582-1.612 1-2.861 1.252-1.25.253-2.537.327-3.862.223l-2.518 1.89v-2.363c-.83-.258-1.478-.592-1.946-1.002-.553-.487-.982-1.187-1.287-2.098a8.741 8.741 0 010-5.585c.305-.911.736-1.613 1.294-2.105.558-.491 1.357-.868 2.397-1.13A12.978 12.978 0 017.339.95c1.087 0 2.15.132 3.19.394 1.04.263 1.838.64 2.396 1.131.558.492.99 1.194 1.294 2.105a8.74 8.74 0 010 5.585c-.305.911-.734 1.61-1.287 2.098zm-3.79-3.509l.929.158a4.458 4.458 0 00-1.323-2.936 4.407 4.407 0 00-2.926-1.331l.158.93c.82.105 1.526.454 2.117 1.046a3.57 3.57 0 011.044 2.133zm-3.005-2.22l.172 1.032c.381.19.662.472.844.845l1.03.171a2.62 2.62 0 00-.73-1.31 2.785 2.785 0 00-1.316-.737zm-1.53.846v-.917a.82.82 0 00-.18-.487 1.174 1.174 0 00-.379-.35c-.133-.072-.233-.08-.3-.022l-.658.673c-.372.372-.427.952-.165 1.74.263.787.763 1.551 1.503 2.291.739.74 1.502 1.241 2.288 1.504.787.262 1.362.207 1.724-.165l.673-.673c.066-.058.064-.155-.008-.294a1.087 1.087 0 00-.35-.38.84.84 0 00-.487-.171h-.915l-.53.458c-.419-.114-.941-.484-1.566-1.11-.624-.625-.994-1.152-1.108-1.582l.457-.515zm.915-4.582l.143.93c.954.02 1.836.27 2.646.752a5.433 5.433 0 011.932 1.933 5.43 5.43 0 01.758 2.642l.93.158c0-.87-.17-1.7-.508-2.492a6.444 6.444 0 00-1.366-2.048A6.438 6.438 0 008.01 3.306a6.26 6.26 0 00-2.49-.508z" fill="#fff"/></svg>