<svg width="18" height="18" fill="none" xmlns="http://www.w3.org/2000/svg"><path d="M.003 17.568l1.177-4.322A8.7 8.7 0 018.7.168a8.7 8.7 0 018.7 8.7A8.7 8.7 0 014.324 16.39l-4.32 1.178zM5.56 4.786a.836.836 0 00-.323.087c-.094.054-.18.12-.255.199-.105.098-.164.183-.227.266a2.374 2.374 0 00-.492 1.46c.002.426.113.841.287 1.23.356.784.941 1.615 1.715 2.385.186.185.368.371.564.544a8.221 8.221 0 003.34 1.78l.495.076c.161.009.322-.004.484-.011.254-.013.501-.082.725-.201.114-.059.225-.123.333-.192 0 0 .037-.024.109-.078.117-.087.19-.149.287-.25a.998.998 0 00.183-.263c.067-.142.135-.413.163-.638.021-.172.015-.266.012-.325-.003-.093-.08-.19-.165-.23l-.506-.227s-.757-.33-1.22-.54a.433.433 0 00-.153-.036.42.42 0 00-.329.11v-.001c-.004 0-.063.05-.692.811a.304.304 0 01-.32.113 1.249 1.249 0 01-.166-.057c-.108-.045-.145-.063-.22-.095l-.004-.002a5.228 5.228 0 01-1.365-.87c-.11-.095-.212-.2-.316-.3a5.477 5.477 0 01-.888-1.104l-.051-.082a.803.803 0 01-.089-.179c-.033-.128.053-.23.053-.23s.212-.232.31-.357a3.86 3.86 0 00.229-.324c.103-.166.135-.335.08-.467a72.434 72.434 0 00-.754-1.775c-.052-.117-.204-.2-.342-.217l-.141-.014a2.944 2.944 0 00-.35.003v.001z" fill="#fff"/></svg>