<svg xmlns="http://www.w3.org/2000/svg" viewBox="0 0 1024 1024"><style>.st0{fill:#fff}</style><path class="st0" d="M758 148c-14.3-10.43-26.82-17.43-36-22-7.82-3.9-13.2-6.04-20-7-9.45-1.34-17.24.21-24 2-24.31 6.42-43.13 17.92-61 29 0 0-12.05 7.47-29 21-8.73 6.97-12.05 10.26-15 15-6.18 9.94-6.76 19.85-7 25-.7 15.15 4.59 26.61 8 34 2.86 6.19 6.1 11.11 8 14 2.83 4.3 4.33 6.55 7 9 .9.82 4.05 3.62 12 7 10.76 4.57 19.83 5.74 22 6 6.27.75 10.57.49 19 0 13.92-.82 21.55-2.93 25-4 6.79-2.1 9.5-3.88 11-5 4.79-3.58 7.25-7.86 9-11 1.49-2.67.76-1.98 6-16 3.06-8.19 4.59-12.28 5-13 1.03-1.82 1.91-3.04 2-5 .15-3.25-1.96-6.11-5-9-5.15-4.9-8.67-5.79-18-11-.62-.35-6.66-3.74-14-9-4.76-3.41-7.75-5.94-10-10-1.12-2.01-2.89-5.31-2-9 .25-1.06.78-2.37 3-5 3.45-4.09 6.89-6.5 9-8 3.7-2.62 7.28-5.41 11-8 14.66-10.22 14.42-10.21 16-11 6.38-3.19 11.73-4.02 18-5 2.45-.38 13.04-1.92 27 0 5.97.82 13.97 2.47 23 6z" id="Слой_2"/><path class="st0" d="M556 230c-1.89-9.56-1.6-17.59-1-23 .62-5.6 1.69-14.41 7-24 3.19-5.76 6.51-9.28 12-15 7.93-8.27 14.99-13.58 21-18 4.9-3.61 11.61-8.21 20-13-3.21-2.71-7.59-6.21-13-10-2.71-1.89-12.5-8.63-30-17-17.09-8.17-25.64-12.26-36-13-10.79-.77-19.01 1.44-21 2-6.34 1.79-10.65 4.22-19 9-5.17 2.96-12.11 7.22-20 13 3.43-1.25 8.19-2.78 14-4 5.92-1.24 12.41-2.6 21-2 8.65.6 15.15 2.88 18 4 4.75 1.86 7.78 3.75 13 7 5.56 3.47 3.4 2.72 18 14 3.46 2.67 5.56 4.24 6 7 .35 2.23-.46 4.7-4 9-7.42 9.02-16.72 13.85-19 15-7.18 3.62-10.31 3.75-14 8-1.31 1.51-4.17 4.81-4 9 .03.64.12 1.26 2 7 .99 3.02 1.48 4.54 2 6 2.53 7.16 3.8 10.75 5 13 1.44 2.69 3.9 7.3 9 11 4.76 3.46 9.71 4.6 13 5z" id="Слой_3"/><path class="st0" d="M371 456c7.33-17.67 14.67-35.33 22-53l144-54c2.24 4.1 6.51 10.38 14 15 1.35.83 3.25 2.01 6 3 2.31.83 13.92 4.65 24-2 5.16-3.41 7.49-8 9-11 5.16-10.25 3.9-20.4 3-25 85.33-31.33 170.67-62.67 256-94l-45 154c-2.76-3.04-7.99-7.94-16-11-13.91-5.32-26.36-1.32-30 0l21-70c-136 49.33-272 98.67-408 148z" id="Слой_4"/><path class="st0" d="M547 331c1.2 4.22 3.8 7.82 9 15 2.39 3.3 3.45 4.32 5 5 3.72 1.63 7.4.24 8 0 4.07-1.64 5.66-5.24 6-6 .18-.42.49-1.18 1-4 .74-4.08.96-7.27 1-8 .36-6.04.07-10.95 0-12-.2-3.2-.81-12.94-3-22-5.91-24.42-22.81-41.81-24-43-5.41-5.44-13.66-13.56-27-18-4.7-1.56-9.42-2.47-17-3-9.37-.66-26.98-1.03-59 6-17.44 3.83-26.17 5.74-37 10-6.45 2.54-16.63 6.02-37 13-.95.33-4.38 1.48-9 2-2.65.3-5.07.57-8 0-4.21-.82-4.53-2.42-9-4-2.12-.75-6.79-2.4-12-1-4.91 1.32-7.87 4.69-9 6-3.09 3.6-2.54 5.54-6 12-1.89 3.52-3.36 6.27-6 9-3.63 3.76-6.28 4.18-15 9-4.39 2.42-5.36 3.23-10 6-13.03 7.79-28.16 15.11-32 17-9.42 4.65-20.94 12.43-44 28-21.01 14.19-34.15 23.11-51 37-7.26 5.98-14.51 12.99-29 27-11.55 11.17-18.53 18.43-22 30-2.08 6.95-2.07 12.69-2 15 .4 12.47 5.77 21.11 7 23 3.08 4.76 6.4 7.75 10 11 2.95 2.66 6.11 5.47 11 8 3.21 1.66 6.83 3.53 12 4 1.26.12 6.75.52 13-2 1.8-.73 3.27-1.54 12-8 3.87-2.86 5.81-4.28 8-6 10.03-7.86 19-15.64 23-19 5.82-4.89 14.43-11.63 26-19 .64.37 1.48.99 2 2 1.64 3.16-1.13 7.58-2 9-7.52 12.36-17 39.32-19 45-1.99 5.65-1.55 5.44-6 19-2.96 9.01-3.94 11.51-6 18-1.11 3.5-3.61 11.44-6 21-4.99 19.98-7.49 29.97-9 38-.3 1.6-.87 4.71-3 8-3.17 4.9-7.8 7.13-12 9-13.95 6.21-21.02 7.57-34 13-2.8 1.17-6.59 2.83-11 5-5.96 2.93-13.43 6.6-21 12-9.88 7.05-15.24 13.38-20 19-2.89 3.41-4.19 5.33-5 8-2.28 7.57 1.36 14.75 3 18 3.19 6.31 7.62 10.04 10 12 1.71 1.41 4.81 3.28 11 7 5.22 3.14 6.45 3.65 8 4 4.58 1.02 8.47-.18 11-1 4.45-1.44 7.16-3.44 12-7 5-3.67 10.07-7.24 15-11 4.14-3.16 10.24-7.69 18-13 .67 1.33 1.33 2.67 2 4v41c1.02 10.96 3.62 19.74 6 26 3.67 9.64 7.94 16.22 13 24 2.36 3.64 7.79 11.7 16 21 4.5 5.09 8.13 9.21 14 14 8.13 6.63 15.01 10.04 17 11 7.06 3.4 12.35 4.64 14 5 0 0 8.76 1.93 16 0 1.2-.32 2.64-.82 4-2 .71-.61 2.64-2.24 3-5 .28-2.2-.74-3.91-2-6-.86-1.44-4.89-8.31-6-10-3.3-5.04-4.81-9.51-6-13-2.46-7.23-2.77-13.16-3-18-.32-6.95.45-12.73 2-24 1.02-7.37 2.01-12.91 4-24 1.12-6.22 2.26-12.54 4-21 1.52-7.35 2.42-11.75 4-18 1.87-7.43 3.83-14.03 5-18 1.54-5.2 1.66-5.35 3-10 2.22-7.7 3.34-11.63 4-16 1.07-7.06-.04-6.83 1-11 1.89-7.59 6.64-12.58 9-15 5.44-5.59 11.02-7.99 18-11 6.72-2.9 9.14-3.01 18-6 24.05-8.12 17.41-7.45 20-8 .61-.13 2.48-.49 4-2 1.56-1.55 1.92-3.48 2-4 .11-.71.38-3.19-3-8-2.43-3.46-4.92-5.5-8-8-3.65-2.96-5.66-4.59-9-6-2.57-1.09-5.39-2.28-9-2-3.64.28-4.57 1.78-8 2-3.35.22-6.16-.97-8-2 .33-1.67.67-3.33 1-5 1.95-3.4 4.81-8.57 8-15 5.83-11.78 8.69-19.61 14-33 8.03-20.23 7.49-17.41 14-34 6.7-17.07 8.19-22.4 14-38 12.8-34.36 16.49-36.23 19-47 .24-1.03 2.11-9.15 7-18 1.66-3 2.88-4.67 4-6 1.16-1.38 5.09-5.82 12-9 3.67-1.69 5.78-1.92 10-3 8.27-2.12 10.14-3.79 19-7 7.65-2.77 6.89-1.75 26-7 10.59-2.91 10.04-3 21-6 15.77-4.32 13.42-3.18 23-6 0 0 12.3-3.62 23-6 0 0 2.15-.48 6-1 6.79-.92 9.23-.53 11 0 1.29.39 2.68.82 4 2 2.03 1.82 2.47 4.11 3 6z" id="Слой_5"/><path class="st0" d="M154 605L40 530l75-27c1.26 1.62 3.21 3.84 6 6 3.25 2.52 6.13 3.77 9 5 5.96 2.55 10.96 3.61 13 4 7.53 1.44 15.28 2.92 24 0 3.42-1.15 7.32-4.14 15-10 6.36-4.85 11.48-9.05 15-12-3 9.33-6 18.67-9 28-15.33 5.67-30.67 11.33-46 17 11.67 7.33 23.33 14.67 35 22l-9 36c-4.67 2-9.33 4-14 6z" id="Слой_6"/><path class="st0" d="M286 692c2.85-7.01 5.72-15.39 8-25 2.19-9.23 3.38-17.68 4-25 16.67 11 33.33 22 50 33-.07 2.37-.13 5.83 0 10 .2 6.72.52 15.81 3 26 1.82 7.5 2.87 11.8 6 17 7.55 12.55 19.57 17.61 23 19 5.76 2.33 10.64 3 18 4 7.52 1.03 13.28 1.02 17 1 6.85-.03 10.27-.05 13-1 2.59-.9 9.01-3.77 14-14l176 116c16.33-54.67 32.67-109.33 49-164 2.68.67 7.89 1.59 14 0 1.51-.39 12.66-3.46 17-13 5.25-11.53-2.25-24.96-10-31-1.17-.91-2.23-1.56-3-2v-1c-.67-2-1.33-4-2-6a67.073 67.073 0 005-22c4.42 4.05 7.76 7.55 10 10 3.31 3.62 4.49 5.26 7 7 3.6 2.5 7.08 3.09 12 4 3.39.63 8.17 1.22 14 1-28.67 97.33-57.33 194.67-86 292L286 692z" id="Слой_7"/><path class="st0" d="M474 603c3.47 3.6 8.67 8.57 15 13 6.05 4.24 13.22 8.05 14.85 8.92.1.05.15.08.15.08-.1 2.28-1.21 26.89-3 42-.21 1.77-.64 5.05-3 8-2.98 3.73-7.32 4.75-13 6-6.38 1.41-11.02 2.43-17 1-7.45-1.79-12.14-6.22-15-9-4.59-4.45-7.14-9.01-10-15-2.35-4.94-6.73-14.67-12-32-5.01-16.46-7.51-24.69-8-32-.27-4.03-.51-11.85-2-12-.53-.05-1.08.86-2 3-2.98 6.94-3.85 12.94-4 14-2.04 14.07-1.26 5.87-2 13-1.64 15.82-2.46 23.73-3 33-1.19 20.38.09 15.39-1 35-.44 7.95-1.11 16.97 2 27 1.54 4.98 2.95 9.33 7 12 3.19 2.1 6.44 2.13 8 5 1.17 2.15.98 5.08 0 7-3.58 7.04-20.63 6.34-32 3-5-1.47-13.65-4.01-20-12-3.94-4.96-5.51-10.14-7-18-3.89-20.48-3.1-37.14-3-39 1.62-30.36 5-51 5-51 6.57-37.1 13.61-64.07 16-72 4.3-14.27 8.59-26.16 12-35 .23-.24.57-.6 1-1 0 0 2.76-2.59 6-4 2.68-1.17 5.85-.62 12 1 9.67 2.55 14.5 3.83 18 6 5.23 3.24 8.45 6.99 10 9 2.35 3.04 5.54 7.19 6 13 .23 2.87-.4 3.75-1 8-.74 5.26-.48 8.98 0 16 .65 9.43 1.01 14.18 3 20 1.46 4.26 4.45 11 11 18 1.07 4.45 2.08 9.12 3 14 .61 3.24.89 5.22 2 12 .83 5.09 1.53 9.24 2 12 .37.08.7.08 1 0 4.69-1.2 3.6-20.15 3-28z" id="Слой_8"/><path class="st0" d="M521 561c7.77-.64 13.88-1.94 18-3 5.43-1.4 10.91-3.33 13-4 8.48-2.71 11.08-4.41 16-5 2.06-.25 3.71-.5 7-1 4.09-.62 4.52-.76 5-1 2.35-1.18 3.3-3.57 5-9 2.05-6.52 3.44-11.88 4-14 .53-2.03-.25 1.01 3-11 2.57-9.49 3.86-14.25 4-15 .95-5.08.58-5.8 2-18 .39-3.37.75-6.14 1-8-1.77.94-4.19 2.28-7 4-9.74 5.96-16.6 11.9-20 15-6.74 6.16-11.16 11.52-14 15-4.5 5.51-5.87 7.94-14 19-5.01 6.81-6.07 8.02-7.66 10.16 0 0-.68.92-1.34 1.84-1.47 2.06-7 11.63-14 25-3.2-2.07-55.22-35.84-54-40 .12-.41.29-.93.29-.93.97-2.93 2.12-5.02 2.71-6.07 4.45-7.98 6.67-11.97 8-14 4.3-6.59 8-11.42 10-14 7.05-9.11 11.99-15.5 21-26 13.29-15.48 20.14-23.38 30-31 5.96-4.61 10.96-7.66 17-10 3.13-1.21 9.98-3.55 19-4 3.42-.17 15.94-.5 30 6 11.55 5.34 18.19 12.54 26 21 6.44 6.98 12.41 13.46 17 24 5.08 11.67 5.62 21.81 6 29 .57 10.74.99 18.49-2 28-.86 2.75-3.9 13.35-4 22-.03 2.55-.04 5.02 1 8 1.04 2.99 2.29 4.1 3 7 .49 2 1.11 4.58 0 7-.89 1.94-2.2 2.24-6 5-3.27 2.37-5.31 3.85-7 6-1.27 1.62-2 3.17-4 10-1.75 5.97-2.03 7.63-3 11-1.61 5.58-2.47 6.72-6 16-2.24 5.89-2.3 6.5-5 14 0 0-3.3 9.14-8 21-8.26 20.84-11.97 24.05-22 48-5.24 12.52-11.91 24.42-17 37 0 0-1.73 4.28-7 11-.44.56-.9.92-1 1-.67.51-1.29.75-2 1-1.24.44-2.45.87-3 1-3.27.77-9-3-9-3-5.89-3.87-8.84-5.81-12-9-6.28-6.34-9.31-12.55-10-14-1.35-2.84-3.31-7.07-4-13-.72-6.2.33-11.02 1-14 1.01-4.45 1.84-5.24 5-14 2.37-6.56 2.07-6.59 4-12 3.25-9.08 4.06-8.92 8-19 3.53-9.04 3.7-11.28 7-18 1.56-3.17 3.52-5 5-9 1.62-4.37 1.97-8.32 2-11-2.82.51-6.96 1.24-12 2-8.67 1.31-13.01 1.97-17 2-8.7.07-15.31-2.28-20-4-15.65-5.73-25.21-15.77-31-22-7.27-7.82-13.63-14.65-17-26-3.82-12.88-1.68-24.12 0-30 1.39-4.87 6.46-22.59 16-25 11.69-2.95 29.54 17.2 44 50z" id="Слой_9"/><path class="st0" d="M624 651c.92 2.09 2.47 5 5 8 4.26 5.04 8.92 7.45 12 9 7.65 3.86 14.49 4.57 19 5 3.2.3 7.19.73 12 0 6.7-1.02 8.39-3.09 9-4 .31-.47 1.69-2.54 1-5-.23-.84-.77-1.48-4-4-2.53-1.97-3.08-2.24-4-3-2.66-2.19-3.91-4.77-5-7-2.4-4.93-2.85-9.43-3-11-1.97-21.27-1-44-1-44 .46-10.79.89-17.38 1-19 .8-12.04 1.12-18.18 2-24 .68-4.49.96-5.12 3-17 .69-4 1.49-7.98 2-12 .05-.37.18-1.49 1-2 .55-.34 1.35-.37 2 0 .79.46.93 1.51 1 2 .5 3.68.74 9.45 1 12 .1.99.4 2.33 1 5 .7 3.14 1.84 8.19 4 15 2.66 8.41 3.21 7.95 7 19 1.85 5.4 1.92 6.08 4 12 2.46 6.99 3.69 10.49 5 13 1.62 3.11 4.72 8.91 11 14 3.06 2.48 7.48 6.07 14 7 .75.11 4.5-.26 12-1 6.46-.64 9.55-1.03 13-3 1.36-.78 2.73-1.49 4-3 1.87-2.22 2.28-4.58 3-9 .58-3.54.36-4.32 1-9 .43-3.13.88-5.34 1-6 1.9-10.11 2.92-41.52 3-44 .57-17.03 2.14-29.97 3-37 1.27-10.39 2.89-23.34 7-40 3.09-12.54 9.44-34.65 22-60 .41-.83.76-1.53 1-2 .15-.82.1-1.49 0-2-.11-.55-.61-2.4-5-5-2.37-1.4-4.18-1.97-7-3-1.81-.66-4.57-1.68-8-3-5.61-.86-10.08-.48-13 0-3.47.57-4.95 1.3-6 2-3.12 2.1-4.34 5.28-5 7-7.22 18.76-6.68 14.45-9 23-1.43 5.27-2.29 9.51-4 18-1.83 9.09-3.02 14.96-4 22-1.13 8.11-1.43 14.19-2 26-.65 13.52-.84 25.05-1 35-.15 8.96-.19 16.22-1 27-.11 1.51 1.32 6.33-1 11a13.92 13.92 0 01-3 4c-.41-2.72-1.08-6.9-2-12-1.34-7.41-2.54-12.87-3-15-6.02-27.74-10-49-10-49-1.29-6.89-2.4-13.2-5-22-3.92-13.27-6.82-17.27-10-20-5.18-4.45-11.27-5.64-15-6-6-1.67-12-3.33-18-5-1.22-.14-3.57-.23-6 1-5.5 2.79-5.98 9.61-6 10 1.85 2.11 4.52 5.46 7 10 1.19 2.18 5.59 10.56 7 25 2.41 24.74-4.93 57.35-6 62a38.68 38.68 0 014 11c.98 4.93 2.1 9.97 0 15-3.29 7.9-12.21 10.51-14 11-8 22.33-16 44.67-24 67z" id="Слой_10"/><path class="st0" d="M845 377c4.12-2.81 6.02-5.76 7-8 1.7-3.89 1.53-7.78 5-12 .78-.95 1.21-1.47 2-2 3.34-2.25 6.7-.41 11-1 3.19-.44 5.09-1.97 8-4 12.58-8.8 29.07-16.65 34-19 9.71-4.62 14.11-5.62 18-6 2.56-.25 7.83-.72 14 1 16.26 4.54 23.19 19.98 25 24 0 0 3.57 7.95 2 16-.07.34-.25 1.27-1 2-1.08 1.05-2.66 1.01-3 1-1.37-.04-2.79-.69-6-4-3.85-3.98-4.05-5.35-6-6-2.32-.77-4.62.32-6 1-14.87 7.3-22.19 11.16-29 16-5.32 3.78-13.28 8.91-24 14-.53.91-1.27 2.28-2 4-2.7 6.35-2.85 11.81-3 15-.3 6.36-1.49 12.65-2 19-2.59 32.56-5.83 45.55-7 50-.8 3.03-1.53 5.47-2 7 .18.35.49.78 1 1 1.41.6 2.91-1.13 5-2 2.56-1.07 5.05-.47 7 0 2.28.55 6.59 1.49 8 5 .8 1.98.34 3.95 0 5-7.33 5.65-11.96 8.47-15 10-.72.36-2.44 1.2-4 3-1.95 2.26-2.53 4.74-3 7-1.87 8.94-2 12-2 12 0 15.87-.94 23.79 0 35 .49 5.87 1.36 13.74 3 23 .02.08.49 1.59 2 2 1.29.35 2.55-.66 3-1 2.08-1.56 6.73-4.09 15-8 3.57-1.69 10.49-5.18 25-11 18.09-7.26 19-6.21 26-9 .53-.21 1.99-.8 4-1 1.48-.15 3.51-.11 7 1 5.18 1.65 8.81 4.15 10 5 2.34 1.68 5.43 3.94 8 8 2.59 4.08 2.93 7.27 3 8 .16 1.73.34 3.97-1 6-1.01 1.53-2.4 2.23-4 3-3.38 1.63-6.38 1.94-7 2-4.69.48-9.3 1.62-14 2-5.26.42-10.84 2.61-22 7-9.51 3.73-18.52 7.28-29 14-9.85 6.32-16 11-16 11-3.24 2.46-6.68 4.65-10 7-3.54 2.51-4.8 3.44-7 4-4.37 1.11-8.17-.31-10-1-2.44-.92-9.52-3.57-11-10-.79-3.45.35-6.59 1-8 .97-2.11 2.22-3.21 4-5 1.99-1.99 4.78-4.97 8-9v-1c-5.21-5.1-9.76-8.66-13-11-2.95-2.13-4.87-3.28-7-6-2.1-2.68-3.11-5.23-5-10-1-2.51-2.07-5.22-3-9-.66-2.67-1.43-5.31-2-8-.57-2.71-.89-4.74-2-5-.41-.09-.89.06-2 1-2.01 1.71-2.87 3.33-4 5-1.91 2.83-2.13 2.2-4 5-1.97 2.94-1.74 3.65-3 5-2.2 2.34-5.3 2.77-7 3-6.54.89-14.18-2.3-17-8a11.48 11.48 0 01-1-3c-.5-2.73-.07-6.13 3-11 .79-1.25 3.92-6.04 12-12 3.04-2.24 13.86-9.87 18-13 .37-.28 1.2-.92 2-2 1.62-2.2 1.88-4.6 2-6 .37-4.41.56-6.61 0-10-.63-3.8-.08-4.76 2-25 1.47-14.27 1.65-16.6 2-21 .5-6.31.81-11.51 1-15-.25-.07-.62-.13-1 0-.62.22-.92.84-1 1-1.18 2.32-3.49 3.88-5 6-4.71 6.59-3.01 3.83-8 11-5.87 8.42-6.86 10.28-10 12-1.11.6-3.61 1.94-7 2-4.33.08-7.31-1.97-13-6-4.73-3.35-7.11-5.08-8-8-.43-1.4-.63-3.27 1-9 2.3-8.08 5-13 5-13 5.29-9.63 12.1-18.16 16-23 19.24-23.86 25.67-29.7 31-34 3.25-2.62 6.06-4.65 8-6z" id="Слой_11"/></svg>