<svg width="64" height="65" fill="none" xmlns="http://www.w3.org/2000/svg"><path fill="#AADCE7" d="M8 22.48h47v25H8z"/><path d="M30.649 37.134h-1.791v2.297h-1.82v-2.297H21.49v-1.3l4.983-6.514h2.008l-4.694 6.225h3.308v-2.037h1.762v2.037h1.79v1.589zm5.008 2.441c-.809 0-1.531-.202-2.167-.607-.635-.414-1.136-1.01-1.502-1.79-.366-.79-.549-1.724-.549-2.803 0-1.078.183-2.008.549-2.788.366-.79.867-1.386 1.502-1.79.636-.415 1.358-.622 2.167-.622.809 0 1.531.207 2.167.621.645.405 1.15 1.002 1.516 1.791.366.78.55 1.71.55 2.788 0 1.079-.184 2.013-.55 2.802-.366.78-.871 1.377-1.516 1.791-.636.405-1.358.607-2.167.607zm0-1.632c.722 0 1.29-.299 1.704-.896.424-.597.636-1.487.636-2.672 0-1.184-.212-2.075-.636-2.672-.414-.597-.982-.896-1.704-.896-.713 0-1.28.299-1.704.896-.415.597-.622 1.488-.622 2.672 0 1.185.207 2.075.621 2.672.424.597.992.896 1.705.896zm7.971-3.135c-.828 0-1.497-.279-2.008-.837-.5-.559-.75-1.315-.75-2.268 0-.953.25-1.705.75-2.253.51-.559 1.18-.838 2.008-.838.828 0 1.493.279 1.993.838.51.548.766 1.3.766 2.253 0 .953-.255 1.71-.766 2.268-.5.558-1.165.837-1.993.837zm0-1.083c.443 0 .8-.173 1.069-.52.27-.347.404-.847.404-1.502s-.134-1.15-.404-1.488a1.288 1.288 0 00-1.069-.52c-.443 0-.8.173-1.069.52-.27.337-.404.833-.404 1.488s.135 1.155.404 1.502c.27.347.626.52 1.07.52z" fill="#3F494B"/><path d="M4.4 13.43H4v2h.4c2 0 3.6 1.6 3.6 3.6v26.9c0 3.1 2.5 5.6 5.6 5.6h36.9c3.1 0 5.6-2.5 5.6-5.6v-26.9c0-2 1.6-3.6 3.6-3.6h.3v-2h-.4c-3.1 0-5.6 2.5-5.6 5.6v2.6c-4.4.7-6.8.1-9.3-.6-3.1-.8-6.3-1.7-12.9-.5-4.9.9-7.4.2-10-.5-2.9-.8-5.9-1.6-11.8-.6v-.4c0-3.1-2.5-5.6-5.6-5.6zm16.9 8.5c1.8.5 3.7 1 6.3 1 1.3 0 2.8-.1 4.6-.5 6.2-1.1 9.2-.3 12 .4 1.8.5 3.7 1 6.3 1 1 0 2.2-.1 3.5-.3v22.3c0 2-1.6 3.6-3.6 3.6H13.6c-2 0-3.6-1.6-3.6-3.6v-24.4c5.7-1 8.5-.2 11.3.5z" fill="#3F494B"/></svg>