<svg width="64" height="65" fill="none" xmlns="http://www.w3.org/2000/svg"><path d="M24.238 29.894h16.374c5.054 0 9.165-3.493 9.165-7.787 0-4.294-4.115-7.787-9.165-7.787H25.679c-3.22 0-5.907-1.869-6.487-4.333h24.073c6.47 0 11.73 4.303 11.73 9.592v31.546H9.019c.487-10.188 2.554-21.231 15.22-21.231zm30.758 21.357h-46v1.859h46v-1.859z" fill="#FFF8E1"/><path fill-rule="evenodd" clip-rule="evenodd" d="M43.265 11H18.083a1 1 0 00-.705.291.991.991 0 00-.293.702c0 4.034 3.857 7.314 8.596 7.314h14.93c3.953 0 7.169 2.601 7.169 5.8s-3.22 5.8-7.168 5.8H24.238C10.149 30.907 7 43.303 7 55.118v.127a.99.99 0 00.292.702 1 1 0 00.706.291h48.004a1 1 0 00.706-.29.991.991 0 00.292-.703v-32.67C56.991 16.194 50.835 11 43.265 11zM24.238 32.894h16.374c5.054 0 9.165-3.493 9.165-7.787 0-4.294-4.115-7.787-9.165-7.787H25.679c-3.22 0-5.907-1.869-6.487-4.333h24.073c6.47 0 11.73 4.303 11.73 9.592v31.546H9.019c.487-10.188 2.554-21.231 15.22-21.231zm4.113 7.273a4.09 4.09 0 104.093 4.092 4.098 4.098 0 00-4.093-4.092zm0 6.149a2.051 2.051 0 112.05-2.05 2.052 2.052 0 01-2.05 2.042v.008zm8.443-5.46a4.091 4.091 0 012.272-.69 4.098 4.098 0 014.092 4.093 4.09 4.09 0 11-6.364-3.402zm1.132 5.114c.337.225.734.346 1.14.346v-.008a2.053 2.053 0 002.05-2.041 2.05 2.05 0 10-3.19 1.703z" fill="#3F494B"/></svg>