<svg width="64" height="65" fill="none" xmlns="http://www.w3.org/2000/svg"><path d="M29.402 6.88c1.155-2 4.041-2 5.196 0l20.785 36c1.154 2-.289 4.5-2.598 4.5h-41.57c-2.309 0-3.752-2.5-2.598-4.5l20.785-36z" fill="#FFF8E1" stroke="#3F494B" stroke-width="2"/><path d="M29.402 6.88c1.155-2 4.041-2 5.196 0l20.785 36c1.154 2-.289 4.5-2.598 4.5h-41.57c-2.309 0-3.752-2.5-2.598-4.5l20.785-36z" stroke="#3F494B" stroke-width="2"/><path fill-rule="evenodd" clip-rule="evenodd" d="M32.913 31.839l18.714-18.714-1.414-1.414L31.5 30.425 12.786 11.71l-1.415 1.414L30.085 31.84 9.957 51.967l1.414 1.414L31.5 33.253l20.128 20.128 1.414-1.414-20.127-20.128z" fill="#3F494B"/></svg>